<svg width="729" height="219" viewBox="0 0 729 219" xmlns="http://www.w3.org/2000/svg" xmlns:xlink="http://www.w3.org/1999/xlink" fill="none" overflow="hidden"><mask maskUnits="userSpaceOnUse" x="509" y="5" width="169" height="168" id="mask0_715_13535"><path d="M509.939 5.83984 677.374 5.83984 677.374 172.338 509.939 172.338 509.939 5.83984Z" fill="#FFFFFF"/></mask><mask maskUnits="userSpaceOnUse" x="561" y="5" width="167" height="168" id="mask1_715_13535"><path d="M561.011 5.83984 728 5.83984 728 172.338 561.011 172.338 561.011 5.83984Z" fill="#FFFFFF"/></mask><path d="M542.629 151.674C568.847 169.42 596.438 171.565 619.074 163.393L619.019 163.393C649.392 152.484 671.201 123.347 671.201 89.1387L671.201 89.0387 671.146 89.0387C671.146 74.6298 659.437 62.8663 645.083 62.8663 630.728 62.8663 619.765 73.8752 619.065 87.6933 619.01 88.3387 618.965 88.9933 618.865 89.6478 617.119 103.257 606.456 115.32 592.747 115.32L592.692 115.32C578.329 115.32 566.629 103.566 566.629 89.1478L566.584 89.0933 566.584 89.0387C566.584 55.4572 587.602 26.7212 617.147 15.3576 617.701 15.1486 617.674 14.3486 617.119 14.1667 609.447 11.6668 601.283 10.2759 592.802 10.2759 533.911 10.2759 489.93 75.757 529.329 138.002 532.766 143.438 537.311 148.084 542.629 151.684L542.629 151.674Z" fill="#2DABE1"/><g mask="url(#mask0_715_13535)"><path d="M592.802 167.956 592.802 171.702C592.802 172.056 593.093 172.338 593.447 172.338 602.938 172.265 612.074 170.574 620.547 167.511L640.683 160.247C641.347 160.002 641.174 159.011 640.465 159.011L619.665 159.011C619.311 159.011 619.029 159.293 619.029 159.647L619.029 163.275C619.029 163.347 619.047 163.42 619.074 163.493L620.292 166.911C620.411 167.238 620.774 167.411 621.111 167.293 636.883 161.484 650.419 151.02 660.056 137.557 669.819 123.92 675.592 107.184 675.583 89.139L675.583 85.2844C675.583 84.939 675.301 84.6572 674.956 84.6572L671.801 84.6572C671.456 84.6572 671.174 84.939 671.174 85.2844L671.174 88.3935C671.174 88.748 671.456 89.0299 671.801 89.0299L674.892 89.0299C675.246 89.0299 675.537 88.739 675.528 88.3844 675.356 80.2209 671.974 72.8118 666.61 67.4392 661.119 61.912 653.492 58.4756 645.11 58.4756 636.992 58.4756 629.583 61.6938 624.138 66.9119 618.829 71.9846 615.329 79.0027 614.774 86.8026 614.747 87.1572 615.02 87.4572 615.374 87.4844L619.083 87.6662 615.365 87.3844C615.02 87.3572 614.72 87.6117 614.693 87.9571 614.656 88.339 614.62 88.6753 614.574 88.9571L614.574 89.0208 614.565 89.0662C613.82 94.9207 611.102 100.512 607.193 104.502 605.247 106.512 603.011 108.111 600.593 109.211 598.165 110.321 595.556 110.921 592.775 110.921L592.72 110.921C586.738 110.921 581.329 108.484 577.384 104.521 573.438 100.557 571.011 95.1389 571.011 89.1299L571.011 87.5935C571.011 87.4299 570.948 87.2753 570.829 87.1481L570.157 86.4572C569.911 86.2117 569.511 86.2026 569.266 86.4481L567.702 87.9935C567.302 88.3935 567.584 89.0844 568.148 89.0844L570.957 89.0844 570.957 89.0299C570.957 72.8664 576.102 57.9211 584.856 45.6939 593.602 33.4759 605.938 24.0033 620.302 18.8578L630.238 15.2942C630.801 15.0942 630.792 14.2852 630.238 14.0943L620.274 10.5943C611.683 7.58524 602.438 5.88525 592.82 5.88525 569.984 5.88525 549.248 15.2215 534.257 30.2759 519.257 45.3303 509.957 66.1574 509.966 89.0753 509.966 112.002 519.266 132.839 534.257 147.902 549.093 162.847 569.584 172.165 592.165 172.338 592.52 172.338 592.802 172.047 592.802 171.702L592.802 164.211C592.802 163.865 592.52 163.584 592.184 163.584 571.993 163.411 553.72 155.093 540.411 141.729 526.975 128.211 518.675 109.621 518.675 89.0935 518.675 68.5573 526.975 49.9757 540.411 36.4759 553.857 22.9851 572.366 14.6488 592.811 14.6488 601.184 14.6488 609.247 16.0851 616.802 18.6669 617.129 18.7851 617.483 18.6033 617.602 18.276L618.756 14.9488C618.802 14.8124 618.802 14.6579 618.756 14.5215L617.574 11.2125C617.456 10.8852 617.083 10.7125 616.756 10.8307 600.956 16.6397 587.411 27.1123 577.757 40.594 567.993 54.2393 562.229 70.9937 562.229 89.039L562.229 90.6298C562.229 90.7935 562.302 90.9571 562.411 91.0753L563.093 91.7571C563.338 92.0117 563.729 92.0117 563.984 91.7662L565.538 90.2299C565.948 89.8299 565.666 89.139 565.102 89.139L562.929 89.139C562.575 89.139 562.284 89.4299 562.293 89.7844 562.457 97.9389 565.848 105.357 571.211 110.73 576.702 116.248 584.329 119.693 592.711 119.684L592.765 119.684C596.829 119.684 600.693 118.784 604.184 117.193 609.411 114.811 613.783 110.939 617.038 106.239 620.174 101.712 622.292 96.4207 623.12 90.8298 623.174 90.4844 622.92 90.148 622.565 90.1117L618.883 89.6299 622.565 90.2026C622.92 90.2571 623.247 89.9935 623.283 89.6389 623.356 89.039 623.402 88.4935 623.429 88.0117L623.429 87.9299 623.438 87.9026C623.729 82.1481 626.247 76.9936 630.147 73.2573 634.056 69.521 639.301 67.2392 645.092 67.2392 651.074 67.2392 656.483 69.6755 660.428 73.63 664.374 77.5936 666.801 83.0208 666.801 89.0299L666.801 92.7753C666.801 93.1207 667.083 93.4116 667.428 93.4116L670.574 93.4116C670.928 93.4116 671.21 93.1207 671.21 92.7753L671.21 89.6662C671.21 89.3208 670.928 89.039 670.574 89.039L666.847 89.039 666.847 89.139C666.847 105.302 661.701 120.23 652.956 132.448 644.229 144.657 631.883 154.12 617.547 159.266L597.293 166.529C596.62 166.775 596.802 167.765 597.511 167.765L618.438 167.765C618.792 167.765 619.074 167.484 619.074 167.129L619.074 163.502C619.074 163.42 619.056 163.347 619.029 163.284L617.802 159.856C617.692 159.529 617.329 159.366 617.011 159.475 609.62 162.075 601.684 163.502 593.429 163.584 593.084 163.584 592.802 163.865 592.802 164.211L592.802 167.965 592.802 167.956Z" fill="#FFFFFF"/></g><path d="M566.584 89.0389 566.639 89.1389C566.639 103.566 578.347 115.311 592.702 115.311L592.747 115.311C606.456 115.311 617.12 103.257 618.874 89.6389 618.974 88.9844 619.02 88.3389 619.074 87.6844 619.774 73.8663 631.174 62.8665 645.092 62.8665 659.001 62.8665 671.156 74.6209 671.156 89.0389L671.21 89.0389 671.21 89.1389C671.21 123.348 649.392 152.538 619.02 163.384L619.074 163.384C627.229 166.247 635.983 167.856 645.092 167.856 703.992 167.856 747.909 102.502 708.728 40.3121 705.301 34.8667 700.764 30.2122 695.446 26.6032 669.201 8.767 641.547 6.59429 618.874 14.7942 588.447 25.6396 566.584 54.8302 566.584 89.0389Z" fill="#1D71B5"/><g mask="url(#mask1_715_13535)"><path d="M566.738 89.0391C566.638 89.0391 566.538 89.0663 566.456 89.1118L562.674 90.9754 562.719 91.0845 564.192 90.3572C564.801 90.0572 564.583 89.1482 563.91 89.1482L562.919 89.1482C562.556 89.1482 562.274 89.4391 562.274 89.7936 562.447 97.9572 565.838 105.366 571.192 110.739 576.683 116.266 584.319 119.702 592.701 119.702L592.746 119.702C596.819 119.702 600.683 118.793 604.164 117.212 609.401 114.83 613.773 110.948 617.028 106.257 620.164 101.73 622.282 96.4299 623.101 90.8481 623.155 90.4936 622.901 90.1663 622.555 90.1209L618.873 89.6482 622.546 90.2118C622.901 90.2663 623.228 90.0118 623.273 89.6572 623.346 89.0573 623.382 88.5118 623.419 88.03L623.419 87.9482 623.428 87.9118C623.719 82.1573 626.228 77.0119 630.128 73.2665 634.046 69.5393 639.282 67.2575 645.082 67.2484 651.064 67.2484 656.473 69.6938 660.418 73.6483 664.364 77.6119 666.782 83.0391 666.782 89.0391L666.782 92.7845C666.782 93.139 667.064 93.4208 667.418 93.4208L670.564 93.4208C670.909 93.4208 671.191 93.139 671.191 92.7845L671.191 89.6845C671.191 89.33 670.909 89.0482 670.564 89.0482L666.827 89.0482 666.827 89.1482C666.827 105.321 661.691 120.257 652.946 132.475 644.21 144.693 631.882 154.157 617.546 159.275L597.183 166.547C596.519 166.784 596.692 167.775 597.401 167.775L618.419 167.775C618.764 167.775 619.046 167.493 619.046 167.147 619.046 166.42 618.055 166.256 617.828 166.929 617.71 167.266 617.882 167.629 618.219 167.738 626.655 170.62 635.7 172.238 645.091 172.238 667.946 172.238 688.7 162.893 703.691 147.838 718.691 132.793 728 111.966 728 89.0391 728 66.112 718.691 45.2941 703.7 30.2397 688.709 15.1853 667.973 5.83992 645.137 5.84901 635.419 5.84901 626.064 7.5399 617.392 10.6762L617.419 10.6762C601.355 16.4034 587.565 26.9579 577.783 40.6032 568.01 54.2394 562.229 70.9938 562.229 89.0391L562.229 89.9209C562.229 90.0118 562.256 90.1118 562.301 90.2027L562.401 90.4118C562.556 90.7209 562.938 90.8481 563.247 90.6936L566.456 89.1118C566.547 89.0663 566.638 89.0391 566.738 89.0391L570.328 89.0391C570.674 89.0391 570.956 88.7573 570.956 88.4209 571.092 72.4938 576.228 57.7757 584.874 45.7213 593.628 33.5033 605.992 24.0397 620.346 18.9216L620.364 18.9216C628.101 16.1216 636.455 14.6035 645.155 14.6035 665.6 14.6035 684.109 22.9488 697.554 36.4396 710.991 49.9395 719.3 68.5211 719.3 89.0482 719.3 109.575 710.991 128.157 697.545 141.657 684.082 155.138 665.555 163.475 645.091 163.475 636.491 163.475 628.228 161.966 620.51 159.257L619.91 159.047C619.846 159.02 619.773 159.011 619.71 159.011L619.019 159.011 619.019 163.284C619.019 163.356 619.028 163.42 619.046 163.502L620.264 166.911C620.382 167.247 620.746 167.429 621.082 167.302 636.864 161.529 650.4 151.066 660.037 137.593 669.8 123.948 675.564 107.193 675.564 89.1482L675.564 89.0482 675.246 85.2573C675.218 84.93 674.946 84.6664 674.618 84.6664L671.782 84.6664C671.436 84.6664 671.155 84.9482 671.155 85.3027L671.155 88.4118C671.155 88.7573 671.436 89.0391 671.782 89.0391L674.873 89.0391C675.227 89.0391 675.509 88.7573 675.509 88.3936 675.336 80.2392 671.946 72.8301 666.591 67.4484 661.1 61.9303 653.464 58.4848 645.091 58.4939 636.973 58.4939 629.564 61.7121 624.11 66.9302 618.81 72.0029 615.31 79.0119 614.746 86.8118 614.719 87.1755 615.001 87.4754 615.355 87.4936L619.064 87.6845 615.346 87.3936C615.001 87.3664 614.692 87.63 614.673 87.9754 614.637 88.3573 614.601 88.6845 614.555 88.9754L614.555 89.0391 614.537 89.0845C613.801 94.9299 611.083 100.521 607.174 104.521 605.219 106.521 602.983 108.121 600.564 109.23 598.146 110.33 595.537 110.939 592.746 110.939L592.701 110.939C586.719 110.939 581.31 108.493 577.365 104.539 573.419 100.566 570.992 95.1481 570.992 89.1391L570.992 88.2754C570.992 88.1845 570.974 88.0845 570.928 87.9936L570.774 87.6754C570.619 87.3573 570.238 87.23 569.928 87.3845L569.028 87.83C568.419 88.13 568.638 89.0391 569.301 89.0391L570.947 89.0391 566.738 89.0391Z" fill="#FFFFFF"/></g><path d="M32.2724 69.873 32.2724 132.236C32.2724 137.4 33.3633 141.054 35.5451 143.181 37.7451 145.29 41.5541 146.345 46.9632 146.345L59.9085 146.345 59.9085 161.218 44.0541 161.218C34.2815 161.218 26.9452 158.963 22.0543 154.454 17.1544 149.945 14.709 142.545 14.709 132.236L14.709 69.873 1 69.873 1 55.4004 14.709 55.4004 14.709 28.7462 32.2724 28.7462 32.2724 55.4004 59.9085 55.4004 59.9085 69.873 32.2724 69.873Z" fill="#000000"/><path d="M123.431 162.963C113.513 162.963 104.531 160.708 96.4857 156.199 88.4312 151.69 82.1222 145.29 77.5404 136.999 72.9768 128.69 70.7041 119.054 70.7041 108.091 70.7041 97.2817 73.0495 87.7272 77.7586 79.4364 82.4585 71.1274 88.8585 64.7456 96.9584 60.3093 105.076 55.873 114.167 53.6548 124.231 53.6548 134.267 53.6548 143.331 55.873 151.431 60.3093 159.549 64.7456 165.958 71.091 170.667 79.3273 175.367 87.5727 177.721 97.1635 177.721 108.091 177.721 119.054 175.294 128.69 170.449 136.999 165.621 145.29 159.085 151.69 150.849 156.199 142.631 160.708 133.485 162.963 123.431 162.963ZM123.431 147.508C129.758 147.508 135.685 146.036 141.212 143.072 146.74 140.118 151.212 135.681 154.631 129.763 158.049 123.827 159.758 116.6 159.758 108.091 159.758 99.6089 158.085 92.409 154.74 86.4909 151.394 80.5546 147.003 76.1455 141.576 73.2546 136.167 70.3456 130.313 68.8911 124.013 68.8911 117.585 68.8911 111.695 70.3456 106.34 73.2546 101.004 76.1455 96.722 80.5546 93.5039 86.4909 90.2766 92.409 88.6676 99.6089 88.6676 108.091 88.6676 116.727 90.2403 124.009 93.3948 129.945 96.5675 135.863 100.786 140.272 106.049 143.181 111.331 146.072 117.122 147.508 123.431 147.508Z" fill="#000000"/><path d="M290.871 55.4003 290.871 161.217 273.308 161.217 273.308 145.581C269.962 150.99 265.289 155.208 259.308 158.236 253.317 161.236 246.708 162.745 239.49 162.745 231.244 162.745 223.835 161.054 217.272 157.654 210.726 154.236 205.545 149.127 201.745 142.308 197.936 135.472 196.036 127.163 196.036 117.363L196.036 55.4003 213.417 55.4003 213.417 115.072C213.417 125.5 216.054 133.509 221.344 139.109 226.626 144.708 233.835 147.508 242.981 147.508 252.381 147.508 259.79 144.618 265.199 138.818 270.599 133.027 273.308 124.59 273.308 113.509L273.308 55.4003 290.871 55.4003Z" fill="#000000"/><path d="M457.73 55.4003 424.712 161.217 406.567 161.217 381.076 77.2182 355.549 161.217 337.404 161.217 304.204 55.4003 322.168 55.4003 346.495 144.236 372.749 55.4003 390.712 55.4003 416.385 144.418 440.348 55.4003 457.73 55.4003Z" fill="#000000"/><path d="M480.332 38.2006C476.959 38.2006 474.114 37.0551 471.787 34.7461 469.477 32.4188 468.332 29.5825 468.332 26.2371 468.332 22.8916 469.477 20.0553 471.787 17.7281 474.114 15.4008 476.959 14.2372 480.332 14.2372 483.532 14.2372 486.259 15.4008 488.514 17.7281 490.768 20.0553 491.895 22.8916 491.895 26.2371 491.895 29.5825 490.768 32.4188 488.514 34.7461 486.259 37.0551 483.532 38.2006 480.332 38.2006ZM488.805 55.4004 488.805 161.218 471.241 161.218 471.241 55.4004 488.805 55.4004Z" fill="#000000"/><path d="M9.5775 185.403C12.632 185.403 15.232 185.967 17.3956 187.076 19.5774 188.167 21.2319 189.758 22.3774 191.84 23.541 193.903 24.1228 196.367 24.1228 199.221 24.1228 202.058 23.541 204.512 22.3774 206.567 21.2319 208.603 19.5774 210.167 17.3956 211.258 15.232 212.349 12.632 212.894 9.5775 212.894L1.43213 212.894 1.43213 185.403 9.5775 185.403ZM9.5775 210.603C13.4047 210.603 16.3138 209.612 18.3047 207.621 20.3138 205.612 21.3228 202.812 21.3228 199.221 21.3228 195.612 20.3138 192.785 18.3047 190.749 16.3138 188.712 13.4047 187.694 9.5775 187.694L4.19574 187.694 4.19574 210.603 9.5775 210.603Z" fill="#000000"/><path d="M49.8246 206.385 37.352 206.385 34.952 212.894 32.043 212.894 42.0429 185.767 45.1701 185.767 55.1336 212.894 52.2246 212.894 49.8246 206.385ZM49.0246 204.094 43.5701 189.222 38.152 204.094 49.0246 204.094Z" fill="#000000"/><path d="M80.3484 185.403 80.3484 187.694 72.7121 187.694 72.7121 212.894 69.9485 212.894 69.9485 187.694 62.2759 187.694 62.2759 185.403 80.3484 185.403Z" fill="#000000"/><path d="M105.322 206.385 92.8496 206.385 90.4496 212.894 87.5405 212.894 97.5404 185.767 100.668 185.767 110.631 212.894 107.722 212.894 105.322 206.385ZM104.522 204.094 99.0677 189.222 93.6496 204.094 104.522 204.094Z" fill="#000000"/><path d="M120.211 213.076C119.647 213.076 119.175 212.885 118.793 212.494 118.402 212.112 118.211 211.621 118.211 211.04 118.211 210.458 118.402 209.985 118.793 209.621 119.175 209.24 119.647 209.04 120.211 209.04 120.765 209.04 121.238 209.24 121.629 209.621 122.011 209.985 122.211 210.458 122.211 211.04 122.211 211.621 122.011 212.112 121.629 212.494 121.238 212.885 120.765 213.076 120.211 213.076Z" fill="#000000"/><path d="M149.862 185.403 149.862 212.894 147.099 212.894 147.099 185.403 149.862 185.403Z" fill="#000000"/><path d="M181.544 212.894 178.781 212.894 163.581 189.767 163.581 212.894 160.817 212.894 160.817 185.403 163.581 185.403 178.781 208.494 178.781 185.403 181.544 185.403 181.544 212.894Z" fill="#000000"/><path d="M208.606 185.403 208.606 187.694 200.969 187.694 200.969 212.894 198.206 212.894 198.206 187.694 190.533 187.694 190.533 185.403 208.606 185.403Z" fill="#000000"/><path d="M220.415 187.658 220.415 197.912 230.851 197.912 230.851 200.203 220.415 200.203 220.415 210.603 232.015 210.603 232.015 212.894 217.651 212.894 217.651 185.367 232.015 185.367 232.015 187.658 220.415 187.658Z" fill="#000000"/><path d="M244.902 210.639 254.757 210.639 254.757 212.894 242.139 212.894 242.139 185.403 244.902 185.403 244.902 210.639Z" fill="#000000"/><path d="M266.167 210.639 276.022 210.639 276.022 212.894 263.404 212.894 263.404 185.403 266.167 185.403 266.167 210.639Z" fill="#000000"/><path d="M287.432 185.403 287.432 212.894 284.668 212.894 284.668 185.403 287.432 185.403Z" fill="#000000"/><path d="M320.024 193.44C319.242 191.622 318.042 190.204 316.424 189.185 314.824 188.149 312.933 187.622 310.751 187.622 308.715 187.622 306.879 188.095 305.26 189.04 303.633 189.985 302.351 191.331 301.406 193.076 300.46 194.822 299.988 196.849 299.988 199.149 299.988 201.458 300.46 203.494 301.406 205.258 302.351 207.003 303.633 208.349 305.26 209.294 306.879 210.222 308.715 210.676 310.751 210.676 312.66 210.676 314.388 210.267 315.915 209.44 317.442 208.622 318.66 207.44 319.588 205.913 320.533 204.385 321.06 202.603 321.187 200.567L309.66 200.567 309.66 198.313 324.097 198.313 324.097 200.313C323.969 202.74 323.315 204.931 322.133 206.894 320.969 208.84 319.388 210.376 317.406 211.512 315.442 212.631 313.224 213.185 310.751 213.185 308.206 213.185 305.888 212.594 303.806 211.403 301.742 210.194 300.115 208.522 298.933 206.385 297.742 204.258 297.151 201.84 297.151 199.149 297.151 196.44 297.742 194.013 298.933 191.876 300.115 189.749 301.742 188.085 303.806 186.895 305.888 185.713 308.206 185.113 310.751 185.113 313.678 185.113 316.251 185.858 318.46 187.331 320.66 188.785 322.26 190.822 323.26 193.44L320.024 193.44Z" fill="#000000"/><path d="M336.603 187.658 336.603 197.912 347.04 197.912 347.04 200.203 336.603 200.203 336.603 210.603 348.203 210.603 348.203 212.894 333.84 212.894 333.84 185.367 348.203 185.367 348.203 187.658 336.603 187.658Z" fill="#000000"/><path d="M379.054 212.894 376.291 212.894 361.091 189.767 361.091 212.894 358.327 212.894 358.327 185.403 361.091 185.403 376.291 208.494 376.291 185.403 379.054 185.403 379.054 212.894Z" fill="#000000"/><path d="M388.77 199.149C388.77 196.44 389.352 194.013 390.515 191.876 391.697 189.749 393.315 188.085 395.352 186.895 397.406 185.713 399.697 185.113 402.224 185.113 405.279 185.113 407.897 185.84 410.079 187.295 412.279 188.749 413.879 190.804 414.879 193.44L411.643 193.44C410.861 191.576 409.661 190.122 408.043 189.076 406.443 188.04 404.497 187.513 402.224 187.513 400.188 187.513 398.352 187.985 396.734 188.931 395.134 189.876 393.87 191.24 392.952 193.004 392.052 194.749 391.606 196.804 391.606 199.149 391.606 201.476 392.052 203.531 392.952 205.294 393.87 207.04 395.134 208.385 396.734 209.331 398.352 210.276 400.188 210.749 402.224 210.749 404.497 210.749 406.443 210.231 408.043 209.185 409.661 208.149 410.861 206.703 411.643 204.858L414.879 204.858C413.879 207.503 412.279 209.54 410.079 210.967 407.87 212.403 405.252 213.112 402.224 213.112 399.697 213.112 397.406 212.522 395.352 211.331 393.315 210.149 391.697 208.494 390.515 206.385 389.352 204.258 388.77 201.84 388.77 199.149Z" fill="#000000"/><path d="M427.789 187.658 427.789 197.912 438.225 197.912 438.225 200.203 427.789 200.203 427.789 210.603 439.389 210.603 439.389 212.894 425.025 212.894 425.025 185.367 439.389 185.367 439.389 187.658 427.789 187.658Z" fill="#000000"/><path d="M449.985 213.076C449.422 213.076 448.949 212.885 448.567 212.494 448.176 212.112 447.985 211.621 447.985 211.04 447.985 210.458 448.176 209.985 448.567 209.621 448.949 209.24 449.422 209.04 449.985 209.04 450.54 209.04 451.013 209.24 451.403 209.621 451.785 209.985 451.985 210.458 451.985 211.04 451.985 211.621 451.785 212.112 451.403 212.494 451.013 212.885 450.54 213.076 449.985 213.076Z" fill="#000000"/><path d="M503.745 185.767 503.745 212.894 500.981 212.894 500.981 191.222 491.309 212.894 489.309 212.894 479.636 191.331 479.636 212.894 476.873 212.894 476.873 185.767 479.782 185.767 490.291 209.294 500.8 185.767 503.745 185.767Z" fill="#000000"/><path d="M530.61 206.385 518.137 206.385 515.737 212.894 512.828 212.894 522.828 185.767 525.955 185.767 535.919 212.894 533.01 212.894 530.61 206.385ZM529.81 204.094 524.355 189.222 518.937 204.094 529.81 204.094Z" fill="#000000"/><path d="M553.171 185.403C556.226 185.403 558.826 185.967 560.989 187.076 563.171 188.167 564.826 189.758 565.971 191.84 567.135 193.903 567.717 196.367 567.717 199.221 567.717 202.058 567.135 204.512 565.971 206.567 564.826 208.603 563.171 210.167 560.989 211.258 558.826 212.349 556.226 212.894 553.171 212.894L545.026 212.894 545.026 185.403 553.171 185.403ZM553.171 210.603C556.998 210.603 559.908 209.612 561.898 207.621 563.908 205.612 564.917 202.812 564.917 199.221 564.917 195.612 563.908 192.785 561.898 190.749 559.908 188.712 556.998 187.694 553.171 187.694L547.789 187.694 547.789 210.603 553.171 210.603Z" fill="#000000"/><path d="M580.254 187.658 580.254 197.912 590.69 197.912 590.69 200.203 580.254 200.203 580.254 210.603 591.854 210.603 591.854 212.894 577.49 212.894 577.49 185.367 591.854 185.367 591.854 187.658 580.254 187.658Z" fill="#000000"/><path d="M620.229 187.658 620.229 197.912 630.666 197.912 630.666 200.203 620.229 200.203 620.229 210.603 631.829 210.603 631.829 212.894 617.466 212.894 617.466 185.367 631.829 185.367 631.829 187.658 620.229 187.658Z" fill="#000000"/><path d="M657.88 206.385 645.407 206.385 643.007 212.894 640.098 212.894 650.098 185.767 653.225 185.767 663.189 212.894 660.28 212.894 657.88 206.385ZM657.08 204.094 651.625 189.222 646.207 204.094 657.08 204.094Z" fill="#000000"/><path d="M680.659 213.185C678.841 213.185 677.241 212.876 675.859 212.24 674.496 211.612 673.423 210.74 672.623 209.622 671.841 208.485 671.432 207.213 671.387 205.803L674.296 205.803C674.414 207.167 674.996 208.349 676.041 209.367 677.078 210.367 678.623 210.858 680.659 210.858 682.496 210.858 683.968 210.385 685.059 209.44 686.15 208.476 686.696 207.249 686.696 205.767 686.696 204.603 686.387 203.658 685.787 202.931 685.177 202.203 684.423 201.676 683.532 201.331 682.659 200.967 681.432 200.585 679.859 200.167 678.014 199.658 676.559 199.176 675.496 198.713 674.423 198.231 673.505 197.494 672.732 196.494 671.978 195.504 671.605 194.158 671.605 192.458 671.605 191.058 671.969 189.795 672.696 188.676 673.441 187.567 674.487 186.695 675.823 186.058 677.15 185.431 678.678 185.113 680.405 185.113 682.95 185.113 684.996 185.731 686.55 186.967 688.123 188.204 689.023 189.822 689.241 191.804L686.259 191.804C686.087 190.667 685.468 189.658 684.405 188.785 683.359 187.913 681.95 187.476 680.187 187.476 678.532 187.476 677.15 187.913 676.041 188.785 674.95 189.658 674.405 190.858 674.405 192.385 674.405 193.531 674.696 194.458 675.278 195.185 675.878 195.894 676.632 196.422 677.532 196.785 678.45 197.149 679.687 197.54 681.241 197.949 683.005 198.458 684.441 198.958 685.532 199.44 686.641 199.931 687.577 200.667 688.332 201.658 689.105 202.658 689.496 203.985 689.496 205.658 689.496 206.949 689.15 208.167 688.477 209.331 687.796 210.476 686.777 211.403 685.423 212.131 684.087 212.84 682.496 213.185 680.659 213.185Z" fill="#000000"/><path d="M717.676 185.403 708.876 202.203 708.876 212.894 706.113 212.894 706.113 202.203 697.24 185.403 700.331 185.403 707.495 199.694 714.622 185.403 717.676 185.403Z" fill="#000000"/></svg>